<?xml version="1.0" encoding="utf-8"?>
<!-- Generator: Adobe Illustrator 27.4.1, SVG Export Plug-In . SVG Version: 6.00 Build 0)  -->
<svg version="1.1" xmlns="http://www.w3.org/2000/svg" xmlns:xlink="http://www.w3.org/1999/xlink" x="0px" y="0px"
	 viewBox="0 0 495 128" style="enable-background:new 0 0 495 128;" xml:space="preserve">
<style type="text/css">
	.st0{fill:#280747;}
</style>
<g id="_x35_4">
	<g>
		<g>
			<path class="st0" d="M45.93,42.3c-0.11-0.28-0.31-0.4-0.59-0.34c-1.45,0.17-2.54,0.25-3.27,0.25c-1,0.05-2.83-0.58-5.48-1.9
				c-2.65-1.33-4.61-1.96-5.9-1.91c-2.85,0.11-5.72,0.91-8.62,2.37c-0.28,0.17-0.34,0.39-0.17,0.67c0.17,0.34,0.42,0.45,0.75,0.34
				c1.4-0.22,2.43-0.34,3.1-0.34c1.84-0.05,3.95,0.53,6.32,1.73c2.37,1.21,4.31,1.79,5.82,1.73c2.34-0.06,4.93-0.7,7.78-1.94
				C45.95,42.86,46.04,42.64,45.93,42.3z M85.61,53.93c-0.16,0.05-0.34,0.08-0.52,0.12c-0.84,0.18-2.68,0.26-5.53,0.26
				c-3.51,0-8-0.93-13.47-2.79c-5.47-1.86-10.01-2.79-13.64-2.79c-3.01,0-6.87,0.97-11.59,2.92c-4.72,1.94-8.36,2.91-10.92,2.91
				c-1.22,0-3.12-0.48-5.69-1.43c-0.39-0.18-0.64-0.06-0.76,0.34c-0.11,0.39,0.03,0.67,0.42,0.85c4.91,1.75,9.12,2.62,12.64,2.62
				c1.28,0,2.91-0.13,4.89-0.38c1.98-0.26,3.64-0.38,4.98-0.38c4.24,0,6.36,1.04,6.36,3.13c0,2.53-3.21,3.8-9.62,3.8
				c-1.62,0-3.68-0.09-6.19-0.26c-2.51-0.17-4.52-0.25-6.02-0.25c-3.12,0-6,0.45-8.62,1.35c-1.89,0.68-4.6,1.94-8.12,3.81
				c-0.28,0.11-0.42,0.31-0.42,0.59c0,0.62,0.31,0.82,0.92,0.59c3.85-1.52,7.11-2.28,9.79-2.28c3.23,0,7.29,0.79,12.17,2.36
				c4.88,1.58,8.92,2.37,12.09,2.37c3.57,0,8.03-0.95,13.39-2.83c5.35-1.89,9.79-2.83,13.3-2.83c4.91,0,7.36,1.07,7.36,3.21
				c0,1.97-1.75,2.96-5.27,2.96c-0.61,0-1.51-0.03-2.68-0.09c-1.17-0.05-2.01-0.08-2.51-0.08c-3.18,0-6.27,0.65-9.29,1.94
				c-2.73,1.24-5.43,2.46-8.12,3.64c-3.57,1.29-7.67,1.94-12.3,1.94c-5.08,0-8.99,0.42-11.72,1.27c-0.39,0.11-0.53,0.36-0.42,0.76
				c0.11,0.34,0.36,0.48,0.76,0.42c1.05-0.23,2.15-0.34,3.27-0.34c2,0,4.53,0.5,7.57,1.52c3.04,1.02,5.56,1.52,7.57,1.52
				c2.07,0,4.68-0.62,7.83-1.86c3.15-1.24,5.56-1.86,7.24-1.86c0.5,0,1,0.19,1.5,0.59c0.5,0.39,0.76,0.85,0.76,1.35
				c0,1.91-1.37,3.56-4.1,4.9c-2.4,1.13-4.72,1.69-6.94,1.69c-0.39,0-0.59,0.2-0.59,0.6c-0.05,0.34,0.11,0.53,0.5,0.59
				c2.9,0.23,6-0.39,9.29-1.86c0.17-0.05,2.82-1.44,7.95-4.14c2.96-1.58,5.38-2.36,7.28-2.36c0.72,0,1.7,0.19,2.93,0.57
				c3.25-4.59,5.45-10.04,7.08-15.05C92.55,61.03,88.33,56.22,85.61,53.93z"/>
		</g>
	</g>
	<g>
		<path class="st0" d="M95.91,36.87v6.61l38.05-0.1c1.79,0,3.1-0.43,3.93-1.29c0.83-0.86,1.25-2.67,1.25-5.42
			c0-2.17-0.19-3.75-0.58-4.75c-0.38-0.99-0.93-1.61-1.63-1.87c-0.7-0.25-1.73-0.38-3.07-0.38H81.82V16.93h57.9
			c3.77,0,6.95,0.96,9.54,2.88c2.59,1.92,3.88,5.18,3.88,9.78v12.94c0,1.98-0.38,3.52-1.15,4.6c3.96,1.79,5.94,4.79,5.94,9.01v16.97
			c-0.19,7.29-4.41,10.93-12.65,10.93H81.82V36.87H95.91z M142.78,69.94c0.83-0.89,1.25-2.81,1.25-5.75c0-3.07-0.43-5.16-1.29-6.28
			c-0.86-1.12-2.22-1.68-4.07-1.68H95.91v15.05h42.85C140.61,71.28,141.95,70.84,142.78,69.94z"/>
		<path class="st0" d="M163.68,16.93h14v54.35h58.18v12.75h-72.18V16.93z"/>
		<path class="st0" d="M274.97,16.93h19.84l34.32,67.1h-16.39l-6.52-12.65h-34.6l6.52-12.75h21.57l-14.86-28.95l-27.8,54.35h-16.39
			L274.97,16.93z"/>
		<path class="st0" d="M332,70.04l35.85-31.82h23.29l-35.18,31.82h39.97v14h-58.28L332,70.04z M334.97,31.02V16.93h58.57l5.56,14.09
			H334.97z"/>
		<path class="st0" d="M404.85,16.93h72.27v12.75h-72.27V16.93z M418.94,36.87v6.61c6.39,0,13.9,0,22.53,0s17.09-0.03,25.4-0.1
			v12.84h-47.93v15.05h58.18v12.75h-72.27V36.87H418.94z"/>
	</g>
	<g>
		<path class="st0" d="M147.96,112.48V93.65h8.35c1.68,0,2.95,0.17,3.83,0.51c0.87,0.34,1.57,0.94,2.09,1.79
			c0.52,0.86,0.78,1.8,0.78,2.84c0,1.34-0.43,2.46-1.3,3.38s-2.2,1.5-4.01,1.75c0.66,0.32,1.16,0.63,1.5,0.94
			c0.73,0.67,1.42,1.5,2.07,2.5l3.27,5.12h-3.13l-2.49-3.92c-0.73-1.13-1.33-1.99-1.8-2.59c-0.47-0.6-0.89-1.02-1.27-1.26
			s-0.75-0.41-1.14-0.5c-0.28-0.06-0.74-0.09-1.39-0.09h-2.89v8.36H147.96z M150.45,101.96h5.36c1.14,0,2.03-0.12,2.67-0.35
			s1.13-0.61,1.46-1.13c0.33-0.52,0.5-1.08,0.5-1.69c0-0.89-0.32-1.62-0.97-2.2c-0.65-0.57-1.67-0.86-3.06-0.86h-5.96V101.96z"/>
		<path class="st0" d="M177.48,112.48V93.65h13.61v2.22h-11.12v5.77h10.42v2.21h-10.42v6.41h11.56v2.22H177.48z"/>
		<path class="st0" d="M205.47,112.48V93.65h2.56l9.89,14.78V93.65h2.39v18.83h-2.56l-9.89-14.79v14.79H205.47z"/>
		<path class="st0" d="M239.8,112.48V95.88h-6.2v-2.22h14.92v2.22h-6.23v16.61H239.8z"/>
		<path class="st0" d="M275.43,112.48l7.23-18.83h2.68l7.71,18.83h-2.84l-2.2-5.7h-7.87l-2.07,5.7H275.43z M280.86,104.75h6.38
			l-1.96-5.21c-0.6-1.58-1.04-2.88-1.34-3.9c-0.24,1.21-0.58,2.41-1.01,3.6L280.86,104.75z"/>
		<path class="st0" d="M335.37,105.88l2.49,0.63c-0.52,2.05-1.46,3.61-2.82,4.68c-1.36,1.07-3.02,1.61-4.98,1.61
			c-2.03,0-3.68-0.41-4.95-1.24c-1.27-0.83-2.24-2.02-2.9-3.59s-1-3.25-1-5.05c0-1.96,0.37-3.67,1.12-5.13
			c0.75-1.46,1.81-2.57,3.2-3.33c1.38-0.76,2.9-1.14,4.57-1.14c1.88,0,3.47,0.48,4.75,1.44c1.28,0.96,2.18,2.31,2.68,4.05
			l-2.45,0.58c-0.44-1.37-1.07-2.37-1.9-2.99c-0.83-0.62-1.88-0.94-3.13-0.94c-1.45,0-2.66,0.35-3.63,1.04s-1.65,1.62-2.05,2.79
			c-0.39,1.17-0.59,2.37-0.59,3.62c0,1.6,0.23,3,0.7,4.19c0.47,1.19,1.19,2.09,2.18,2.68c0.98,0.59,2.05,0.89,3.2,0.89
			c1.4,0,2.58-0.4,3.54-1.21C334.37,108.66,335.03,107.46,335.37,105.88z"/>
		<path class="st0" d="M349.38,112.48l7.23-18.83h2.68l7.71,18.83h-2.84l-2.2-5.7h-7.87l-2.07,5.7H349.38z M354.82,104.75h6.38
			l-1.97-5.21c-0.6-1.58-1.04-2.88-1.34-3.9c-0.24,1.21-0.58,2.41-1.01,3.6L354.82,104.75z"/>
		<path class="st0" d="M379.55,112.48V93.65h8.35c1.68,0,2.95,0.17,3.83,0.51c0.87,0.34,1.57,0.94,2.09,1.79
			c0.52,0.86,0.78,1.8,0.78,2.84c0,1.34-0.43,2.46-1.3,3.38c-0.87,0.92-2.2,1.5-4.01,1.75c0.66,0.32,1.16,0.63,1.5,0.94
			c0.73,0.67,1.42,1.5,2.07,2.5l3.28,5.12h-3.13l-2.49-3.92c-0.73-1.13-1.33-1.99-1.8-2.59c-0.47-0.6-0.89-1.02-1.27-1.26
			c-0.37-0.24-0.75-0.41-1.14-0.5c-0.28-0.06-0.75-0.09-1.39-0.09h-2.89v8.36H379.55z M382.04,101.96h5.36
			c1.14,0,2.03-0.12,2.67-0.35c0.64-0.24,1.13-0.61,1.46-1.13c0.33-0.52,0.5-1.08,0.5-1.69c0-0.89-0.32-1.62-0.97-2.2
			c-0.65-0.57-1.67-0.86-3.06-0.86h-5.96V101.96z"/>
	</g>
</g>
<g id="Layer_1">
</g>
</svg>
